# xmcd CD database file
#
# Track frame offsets:
#	150
#	1077
#	19414
#	34963
#	46574
#	67230
#	91732
#	128608
#	129923
#	154978
#	177113
#	214313
#	234685
#	255510
#	286615
#	333131
#
# Disc length: 4753 seconds
#
# Revision: 3
# Processed by: cddbd v1.4PL0 Copyright (c) Steve Scherf et al.
# Submitted via: CDex 1.50beta10
#
DISCID=ce128f10
DTITLE=Albatross - Everybody's  Got The Blues
DYEAR=1990
DGENRE=Blues
TTITLE0=Intro 1
TTITLE1=Too Late Now
TTITLE2=Fine, Fine, Fine
TTITLE3=Feel So Good
TTITLE4=I Don't  Know Your Name
TTITLE5=Move It On Over
TTITLE6=Prisoners Of Conscience
TTITLE7=Intro 2
TTITLE8=Someone I Used To Know
TTITLE9=Never Say Die
TTITLE10=Full Moon On Main Street
TTITLE11=Freddy Wants A Cadillac
TTITLE12=Talk To Your Daugter
TTITLE13=Sweet Little Angel
TTITLE14=Night Time People
TTITLE15=Tempted
EXTD=Blue Horizon Records, YEAR: 1990
EXTT0=
EXTT1=
EXTT2=
EXTT3=
EXTT4=
EXTT5=
EXTT6=
EXTT7=
EXTT8=
EXTT9=
EXTT10=
EXTT11=
EXTT12=
EXTT13=
EXTT14=
EXTT15=
PLAYORDER=
